<svg width="1920" height="1039" viewBox="0 0 1920 1039" fill="none" xmlns="http://www.w3.org/2000/svg">
<path d="M1983.12 242.045C1696.26 186.549 -41 -140.832 -41 69.9911V990.765C-41 998.109 -41 1001.78 -40.5225 1004.84C-37.7154 1022.85 -23.024 1036.72 -4.88874 1038.49C-1.80386 1038.79 1.86741 1038.58 9.20995 1038.16C321.946 1020.22 1989.63 920.706 1989.63 838.368C1989.63 763.541 2012.26 412.776 2020.25 291.337L2020.25 291.331C2020.65 285.25 2020.85 282.209 2020.65 279.467C2019.51 263.478 2008.83 249.638 1993.66 244.467C1991.05 243.58 1988.41 243.068 1983.12 242.045Z" fill="#39CCE6" fill-opacity="0.3"/>
</svg>
