<svg width="697" height="556" viewBox="0 0 697 556" fill="none" xmlns="http://www.w3.org/2000/svg">
<g clip-path="url(#clip0)">
<path d="M426.078 234.953C425.104 240.071 423.937 245.137 422.575 250.15C422.427 250.732 422.262 251.306 422.097 251.888H403.154C401.54 251.89 399.994 252.531 398.853 253.672C397.712 254.812 397.07 256.358 397.068 257.97V311.946C396.495 313.015 395.912 314.075 395.33 315.135C392.322 320.609 389.192 326.022 385.993 331.366C333.827 418.216 261.069 490.895 174.144 542.984L179.291 531.376C177.404 531.245 175.509 531.115 173.623 530.985C132.546 528.178 91.331 525.068 51.2196 515.84C9.2567 506.187 -31.7932 489.443 -64.6803 461.682C-97.5764 433.912 -121.692 394.256 -125.039 351.35C-126.155 336.604 -124.663 321.778 -120.631 307.549C-112.92 280.162 -96.072 255.52 -71.7653 240.94C-33.5841 218.045 16.2204 222.711 56.4705 241.757C96.7121 260.794 129.469 292.309 161.452 323.276C129.16 267.93 84.2002 221.025 30.26 186.408C12.3864 174.974 -6.58239 164.79 -21.7784 149.976C-36.9659 135.17 -48.1718 114.412 -45.4852 93.3762C-42.4341 69.5164 -22.8825 51.4087 -3.29646 37.4457C4.52757 31.8674 12.6037 26.5758 20.9321 21.71C44.4301 7.94679 69.8497 -2.43647 96.6948 -6.28566C133.059 -11.5077 172.336 -3.5834 200.216 20.3285C231.625 47.2728 244.508 90.7261 243.283 132.294C262.634 104.177 292.478 82.6541 326.183 81.7417C361.173 80.8033 394.435 102.899 411.96 133.189C429.478 163.47 432.624 200.589 426.078 234.953Z" fill="url(#paint0_linear)"/>
<path d="M182.102 359.548C202.596 357.744 221.528 355.637 241.387 350.02C260.638 344.576 279.161 335.462 292.865 320.58C307.604 304.574 315.561 283.786 321.174 263.093C324.304 251.556 326.876 239.857 329.303 228.155C331.935 215.458 334.275 202.704 336.321 189.895C340.393 164.397 343.3 138.749 345.043 112.951C345.253 109.82 345.446 106.687 345.622 103.553C345.73 101.62 342.722 101.627 342.614 103.553C341.182 128.983 338.608 154.313 334.89 179.545C331.22 204.334 326.526 229.016 320.57 253.361C315.524 273.986 308.99 294.932 296.049 312.101C283.914 328.2 266.386 338.721 247.46 345.012C228.202 351.413 207.896 353.969 187.772 355.869C185.303 356.102 184.572 356.324 182.102 356.542C180.189 356.71 180.171 359.718 182.102 359.548L182.102 359.548Z" fill="white"/>
<path d="M-141.487 317.587C-115.63 319.021 -90.0355 323.528 -65.2455 331.015C-40.4448 338.487 -16.6121 348.855 5.75879 361.906C27.3748 374.526 47.4418 389.628 65.5518 406.902C83.1279 423.677 98.7923 442.345 112.259 462.565C125.787 482.836 136.998 504.558 145.682 527.326C146.741 530.113 147.761 532.914 148.742 535.729C149.376 537.544 152.283 536.763 151.642 534.93C143.518 511.681 132.808 489.417 119.713 468.557C106.621 447.696 91.2552 428.349 73.8983 410.87C56.2635 393.121 36.6371 377.467 15.409 364.218C-29.163 336.467 -79.6849 319.68 -132.008 315.233C-135.165 314.969 -138.324 314.751 -141.487 314.581C-143.421 314.475 -143.415 317.482 -141.487 317.587L-141.487 317.587Z" fill="white"/>
<path d="M-0.84762 33.0539C15.6851 38.3092 31.3559 45.963 45.6631 55.7704C60.2827 65.8601 73.6161 77.695 85.3676 91.0127C97.7513 105.023 108.761 120.188 118.246 136.3C128.306 153.313 137.045 171.072 144.387 189.42C151.947 208.258 158.305 227.556 163.424 247.197C168.627 267.072 172.691 287.227 175.597 307.564C178.488 327.685 180.237 347.954 180.837 368.273C181.441 387.702 180.867 407.15 179.116 426.51C177.515 444.571 174.591 462.491 170.368 480.125C166.617 496.052 161.332 511.579 154.585 526.487C153.022 529.87 151.364 533.207 149.61 536.497C148.701 538.204 151.296 539.724 152.208 538.014C159.663 523.775 165.617 508.798 169.972 493.328C174.858 476.105 178.4 458.53 180.565 440.76C182.966 421.481 184.135 402.068 184.065 382.641C184.022 362.23 182.806 341.839 180.425 321.568C178.042 301.044 174.503 280.67 169.827 260.544C165.162 240.385 159.245 220.536 152.109 201.113C145.232 182.31 136.997 164.031 127.471 146.42C118.397 129.615 107.823 113.664 95.8779 98.7604C84.5334 84.5704 71.5819 71.7422 57.2825 60.5324C43.494 49.7557 28.2573 40.9713 12.0202 34.4374C8.05233 32.8589 4.0296 31.4314 -0.0480037 30.1549C-1.89882 29.5728 -2.69079 32.4743 -0.847647 33.0539H-0.84762Z" fill="white"/>
<path d="M177.57 556C296.401 556 392.731 552.11 392.731 547.311C392.731 542.512 296.401 538.622 177.57 538.622C58.7401 538.622 -37.5908 542.512 -37.5908 547.311C-37.5908 552.11 58.7401 556 177.57 556Z" fill="url(#paint1_linear)"/>
<path d="M367.668 275.165C367.561 275.634 367.492 276.11 367.46 276.59L330.115 298.123L321.038 292.9L311.361 305.562L330.78 319.395L373.384 285.802C375.122 286.444 377.014 286.543 378.809 286.085C380.605 285.626 382.218 284.632 383.434 283.235C384.65 281.839 385.412 280.105 385.619 278.264C385.825 276.424 385.466 274.564 384.589 272.933C383.712 271.302 382.359 269.976 380.71 269.132C379.061 268.287 377.194 267.965 375.357 268.207C373.52 268.45 371.801 269.245 370.427 270.488C369.053 271.731 368.091 273.362 367.668 275.165Z" fill="#FFC9AB"/>
<path d="M282.618 288.376L312.023 309.323L325.174 292.842L296.59 269.919C295.36 268.932 293.942 268.207 292.422 267.788C290.902 267.369 289.313 267.264 287.751 267.481C286.189 267.697 284.688 268.23 283.34 269.046C281.991 269.863 280.824 270.946 279.908 272.229C278.125 274.729 277.409 277.835 277.917 280.863C278.426 283.892 280.117 286.594 282.618 288.376Z" fill="#368BD9"/>
<path d="M221.92 527.38L232.23 530.08L247.557 491.619L232.341 487.633L221.92 527.38Z" fill="#FFC9AB"/>
<path d="M249.604 544.855L217.202 536.37L220.482 523.857L240.366 529.064C243.686 529.934 246.525 532.086 248.257 535.047C249.99 538.009 250.474 541.537 249.604 544.855Z" fill="black"/>
<path d="M313.568 534.717L324.06 532.844L321.824 491.504L306.34 494.269L313.568 534.717Z" fill="#FFC9AB"/>
<path d="M346.034 538.968L313.06 544.855L310.784 532.122L331.018 528.509C332.691 528.211 334.407 528.244 336.067 528.608C337.727 528.972 339.299 529.659 340.693 530.631C342.088 531.602 343.277 532.838 344.193 534.269C345.11 535.699 345.735 537.296 346.034 538.968Z" fill="black"/>
<path d="M292.909 230.698C295.494 231.327 297.597 233.96 298.861 237.01C300.026 240.214 300.814 243.543 301.211 246.928C302.204 253.234 303.157 260.06 301.104 265.9C298.698 272.744 292.287 276.329 286.726 274.644C281.165 272.96 276.742 266.636 275.231 259.357C273.856 252.002 274.742 244.403 277.774 237.561C279.353 233.967 281.531 230.65 284.424 229.029C285.844 228.171 287.536 227.882 289.159 228.22C290.783 228.558 292.219 229.498 293.177 230.851" fill="black"/>
<path d="M307.536 344.859L327.511 523.672L311.014 529.933L280.587 410.026L238.226 519.661L220.168 520.664C220.168 520.664 244.944 350.073 263.306 346.196L307.536 344.859Z" fill="black"/>
<path d="M290.759 253.518C302.551 253.518 312.111 243.963 312.111 232.177C312.111 220.391 302.551 210.836 290.759 210.836C278.967 210.836 269.407 220.391 269.407 232.177C269.407 243.963 278.967 253.518 290.759 253.518Z" fill="#FFC9AB"/>
<path d="M299.924 262.471L276.85 259.463C276.85 259.463 261.802 277.511 262.805 308.595C263.808 339.678 260.297 349.204 260.297 349.204L308.406 350.073C301.452 340.515 330.541 285.621 299.924 262.471Z" fill="#368BD9"/>
<path d="M312.318 354.417C311.837 354.421 311.357 354.462 310.882 354.541L281.364 323.134L284.374 313.107L269.827 306.589L260.798 328.649L303.267 362.413C303.038 364.251 303.375 366.115 304.233 367.756C305.09 369.398 306.427 370.74 308.066 371.604C309.705 372.467 311.568 372.812 313.408 372.592C315.247 372.371 316.976 371.596 318.364 370.37C319.753 369.143 320.734 367.524 321.179 365.726C321.624 363.928 321.511 362.038 320.854 360.306C320.198 358.574 319.03 357.083 317.505 356.031C315.98 354.979 314.171 354.416 312.318 354.417Z" fill="#FFC9AB"/>
<path d="M279.987 274.69L266.315 308.093L285.376 317.118L301.162 284.06C301.841 282.638 302.222 281.092 302.283 279.518C302.343 277.943 302.082 276.373 301.513 274.903C300.945 273.433 300.083 272.094 298.979 270.969C297.875 269.843 296.553 268.955 295.094 268.359C293.686 267.783 292.179 267.49 290.657 267.497C289.136 267.503 287.631 267.809 286.229 268.397C284.826 268.985 283.553 269.844 282.482 270.923C281.411 272.003 280.563 273.283 279.987 274.69Z" fill="#368BD9"/>
<path d="M285.173 251.579C288.519 249.65 288.876 244.996 288.421 241.163C287.967 237.329 287.207 233.056 289.462 229.921C292.152 226.18 297.558 226.106 302.167 225.983C306.775 225.861 312.387 224.513 313.58 220.063C314.369 217.122 312.681 213.967 310.259 212.121C307.837 210.275 304.807 209.459 301.861 208.683C295.272 206.948 288.469 205.199 281.722 206.152C275.039 207.097 268.997 210.633 264.904 215.996C260.81 221.359 258.993 228.117 259.847 234.809C260.939 243.368 262.523 247.106 261.483 250.88C259.547 257.909 251.198 262.425 251.032 269.714C250.902 275.416 255.941 279.814 260.857 282.709C264.756 285.006 268.965 286.954 273.459 287.492C277.953 288.03 282.791 287 286.139 283.956C290.456 280.029 291.524 273.47 290.286 267.768C289.048 262.066 285.872 257.003 282.73 252.085" fill="black"/>
<path d="M689.176 257.97H380.561C378.487 257.973 376.499 258.798 375.032 260.264C373.566 261.73 372.74 263.717 372.737 265.79V463.898C372.74 465.971 373.566 467.958 375.032 469.424C376.499 470.89 378.487 471.714 380.561 471.718H689.176C691.25 471.714 693.239 470.89 694.705 469.424C696.172 467.958 696.997 465.971 697 463.898V265.79C696.997 263.717 696.172 261.73 694.705 260.264C693.239 258.798 691.25 257.973 689.176 257.97ZM695.262 463.898C695.26 465.51 694.618 467.056 693.477 468.196C692.336 469.337 690.79 469.978 689.176 469.98H380.561C378.948 469.978 377.401 469.337 376.26 468.196C375.12 467.056 374.478 465.51 374.476 463.898V265.79C374.478 264.178 375.12 262.632 376.26 261.491C377.401 260.351 378.948 259.71 380.561 259.708H689.176C690.79 259.71 692.336 260.351 693.477 261.491C694.618 262.632 695.26 264.178 695.262 265.79V463.898Z" fill="white"/>
<path d="M446.436 356.585H397.753C395.794 356.583 393.915 355.804 392.53 354.42C391.145 353.035 390.366 351.158 390.363 349.2V300.542C390.366 298.584 391.145 296.707 392.53 295.322C393.915 293.937 395.794 293.159 397.753 293.156H446.436C448.395 293.159 450.273 293.937 451.658 295.322C453.043 296.707 453.823 298.584 453.825 300.542V349.2C453.823 351.158 453.043 353.035 451.658 354.42C450.273 355.804 448.395 356.583 446.436 356.585Z" fill="#368BD9"/>
<path d="M673.103 408.293H396.654C395.155 408.293 393.718 407.698 392.658 406.638C391.598 405.579 391.003 404.143 391.003 402.645C391.003 401.147 391.598 399.71 392.658 398.651C393.718 397.592 395.155 396.997 396.654 396.997H673.103C674.602 396.997 676.039 397.592 677.099 398.651C678.159 399.71 678.754 401.147 678.754 402.645C678.754 404.143 678.159 405.579 677.099 406.638C676.039 407.698 674.602 408.293 673.103 408.293Z" fill="white"/>
<path d="M673.289 380.923H396.839C395.341 380.923 393.903 380.327 392.844 379.268C391.784 378.209 391.188 376.773 391.188 375.275C391.188 373.777 391.784 372.34 392.844 371.281C393.903 370.222 395.341 369.627 396.839 369.627H673.289C674.787 369.627 676.225 370.222 677.284 371.281C678.344 372.34 678.939 373.777 678.939 375.275C678.939 376.773 678.344 378.209 677.284 379.268C676.225 380.327 674.787 380.923 673.289 380.923Z" fill="white"/>
<path d="M536.803 343.552H495.944C494.445 343.552 493.008 342.957 491.948 341.898C490.888 340.839 490.293 339.402 490.293 337.904C490.293 336.406 490.888 334.97 491.948 333.911C493.008 332.851 494.445 332.256 495.944 332.256H536.803C538.301 332.256 539.738 332.851 540.798 333.911C541.858 334.97 542.453 336.406 542.453 337.904C542.453 339.402 541.858 340.839 540.798 341.898C539.738 342.957 538.301 343.552 536.803 343.552Z" fill="white"/>
<path d="M673.289 315.756H495.944C494.445 315.756 493.008 315.161 491.948 314.101C490.888 313.042 490.293 311.606 490.293 310.108C490.293 308.61 490.888 307.173 491.948 306.114C493.008 305.055 494.445 304.46 495.944 304.46H673.289C674.787 304.46 676.225 305.055 677.284 306.114C678.344 307.173 678.939 308.61 678.939 310.108C678.939 311.606 678.344 313.042 677.284 314.101C676.225 315.161 674.787 315.756 673.289 315.756Z" fill="white"/>
<path d="M529.848 436.097H396.654C395.155 436.097 393.718 435.502 392.658 434.443C391.598 433.384 391.003 431.947 391.003 430.45C391.003 428.952 391.598 427.515 392.658 426.456C393.718 425.397 395.155 424.802 396.654 424.802H529.848C531.347 424.802 532.784 425.397 533.844 426.456C534.903 427.515 535.499 428.952 535.499 430.45C535.499 431.947 534.903 433.384 533.844 434.443C532.784 435.502 531.347 436.097 529.848 436.097Z" fill="white"/>
</g>
<defs>
<linearGradient id="paint0_linear" x1="151.918" y1="-7.81982" x2="151.918" y2="542.984" gradientUnits="userSpaceOnUse">
<stop stop-color="#368BD9"/>
<stop stop-color="#368BD9"/>
<stop offset="0.0001" stop-color="#368BD9"/>
<stop offset="1" stop-color="#F2F9FF"/>
</linearGradient>
<linearGradient id="paint1_linear" x1="177.57" y1="538.622" x2="177.57" y2="556" gradientUnits="userSpaceOnUse">
<stop stop-color="#368BD9"/>
<stop stop-color="#368BD9"/>
<stop offset="0.0001" stop-color="#368BD9"/>
<stop offset="1" stop-color="#F2F9FF"/>
</linearGradient>
<clipPath id="clip0">
<rect width="845" height="556" fill="white" transform="translate(-148)"/>
</clipPath>
</defs>
</svg>
