<svg width="614" height="554" viewBox="0 0 614 554" fill="none" xmlns="http://www.w3.org/2000/svg">
<g clip-path="url(#clip0)">
<path d="M589.249 219.604C589.249 315.711 527.598 397.394 441.733 427.167C407.171 439.083 370.194 442.218 334.123 436.291C330.7 435.732 327.301 435.089 323.926 434.362C319.354 433.39 314.835 432.272 310.37 431.008C218.185 405.028 150.618 320.217 150.618 219.604C150.618 98.3194 248.808 0 369.934 0C491.059 0 589.249 98.3194 589.249 219.604Z" fill="#4C98DD"/>
<path d="M232.569 287.384C232.182 287.591 231.894 287.942 231.767 288.362C231.639 288.782 231.684 289.235 231.889 289.622L314.346 444.268C314.553 444.654 314.904 444.943 315.323 445.071C315.742 445.198 316.195 445.154 316.581 444.948L433.142 382.634C433.528 382.428 433.816 382.076 433.944 381.656C434.071 381.237 434.027 380.784 433.821 380.397L351.364 225.75C351.158 225.364 350.806 225.075 350.387 224.947C349.968 224.82 349.516 224.864 349.129 225.07L232.569 287.384Z" fill="black"/>
<path d="M243.403 291.903L318.86 433.418L422.307 378.116L346.851 236.6L243.403 291.903ZM236.848 295.407L236.863 295.4L236.847 295.408L236.848 295.407Z" fill="white"/>
<path d="M269.487 307.461C267.879 308.321 267.537 310.829 268.723 313.052C269.908 315.274 272.18 316.385 273.787 315.526L349.551 275.022C351.158 274.163 351.5 271.655 350.315 269.432C349.13 267.209 346.858 266.098 345.251 266.958L269.487 307.461Z" fill="#368BD9"/>
<path d="M278.821 324.968C277.213 325.827 276.871 328.335 278.057 330.558C279.242 332.781 281.514 333.892 283.121 333.033L358.885 292.529C360.492 291.67 360.834 289.162 359.649 286.939C358.464 284.716 356.192 283.605 354.585 284.464L278.821 324.968Z" fill="#368BD9"/>
<path d="M288.156 342.475C286.548 343.334 286.206 345.842 287.392 348.065C288.577 350.288 290.848 351.399 292.456 350.54L368.22 310.036C369.827 309.177 370.169 306.669 368.984 304.446C367.799 302.223 365.527 301.112 363.92 301.971L288.156 342.475Z" fill="#368BD9"/>
<path d="M297.49 359.982C295.883 360.841 295.541 363.349 296.726 365.572C297.912 367.795 300.183 368.906 301.791 368.046L377.555 327.543C379.162 326.684 379.504 324.175 378.319 321.953C377.134 319.73 374.862 318.619 373.255 319.478L297.49 359.982Z" fill="#368BD9"/>
<path d="M306.825 377.49C305.218 378.349 304.876 380.857 306.061 383.08C307.247 385.303 309.518 386.414 311.125 385.554L386.89 345.051C388.497 344.191 388.839 341.683 387.654 339.46C386.469 337.238 384.197 336.127 382.59 336.986L306.825 377.49Z" fill="#368BD9"/>
<path d="M321.537 220.571L390.189 224.768L409.415 167.357L349.2 154.617L321.537 220.571Z" fill="black"/>
<path d="M371.049 206.053C386.212 206.053 398.505 193.744 398.505 178.56C398.505 163.376 386.212 151.067 371.049 151.067C355.885 151.067 343.592 163.376 343.592 178.56C343.592 193.744 355.885 206.053 371.049 206.053Z" fill="#FFC9AB"/>
<path d="M415.658 233.786L371.148 241.079L359.413 194.484L390.57 191.647L415.658 233.786Z" fill="#FFC9AB"/>
<path d="M441.555 425.027L441.733 427.167C407.171 439.083 370.194 442.218 334.123 436.291L333.888 440.092C333.757 442.128 333.149 444.105 332.113 445.863C331.077 447.62 329.643 449.109 327.926 450.209C326.209 451.308 324.258 451.988 322.231 452.193C320.203 452.398 318.155 452.122 316.254 451.388L323.926 434.363L333.629 412.815L339.99 398.691L337.7 349.827L337.457 344.771L337.158 338.32L341.301 338.296L370.759 338.118L398.833 337.939L403.114 337.915C429.958 370.977 452.108 397.848 441.555 425.027Z" fill="black"/>
<path d="M402.71 337.509L337.158 344.803L334.73 299.423C327.037 279.777 332.115 262.241 348.081 246.505L351.327 233.64C352.179 230.263 353.939 227.185 356.417 224.74C358.894 222.295 361.993 220.577 365.377 219.773C376.108 213.611 388.262 210.674 401.9 211.095C407.347 213.225 411.965 217.052 415.072 222.011C418.18 226.971 419.612 232.799 419.158 238.636C416.337 274.299 411.274 307.683 402.71 337.509Z" fill="#368BD9"/>
<path d="M384.096 261.337L383.57 265.316L375.194 328.596L370.759 338.117L369.31 341.229L335.539 413.682L334.123 436.291L333.888 440.091C333.775 441.983 333.25 443.827 332.35 445.494C331.45 447.161 330.197 448.61 328.678 449.741C327.159 450.871 325.412 451.655 323.558 452.038C321.705 452.421 319.79 452.392 317.949 451.956C316.107 451.519 314.383 450.684 312.898 449.509C311.413 448.335 310.203 446.849 309.352 445.156C308.501 443.464 308.03 441.605 307.973 439.711C307.915 437.817 308.272 435.933 309.019 434.192L310.37 431.007L317.735 413.682L337.7 349.827L339.343 344.559L341.301 338.295L346.869 320.492L355.739 265.745L356.58 260.526L384.096 261.337Z" fill="#FFC9AB"/>
<path d="M388.952 267.009C376.233 262.433 364.033 261.947 352.534 267.009L356.287 234.437C356.149 230.37 357.611 226.411 360.358 223.411C363.106 220.412 366.919 218.611 370.977 218.397C373.017 218.29 375.057 218.587 376.981 219.27C378.905 219.954 380.676 221.011 382.191 222.382C383.707 223.752 384.937 225.409 385.812 227.256C386.687 229.104 387.188 231.106 387.289 233.148L388.952 267.009Z" fill="#368BD9"/>
<path d="M350.278 146.078C350.278 146.078 336.081 151.266 335.717 170.126C335.697 173.3 336.12 176.461 336.974 179.518C337.894 182.984 338.633 190.505 332.442 200.531C328.397 207.038 324.74 213.78 321.49 220.72L337.476 222.264L340.119 195.73C341.401 182.865 344.567 170.259 349.516 158.318L349.619 158.069C349.619 158.069 356.953 170.832 370.892 170.439L365.773 165.595C365.773 165.595 383.231 172.178 392.724 173.5C393.808 173.651 394.829 174.095 395.679 174.784C396.529 175.474 397.175 176.382 397.548 177.412C397.92 178.442 398.005 179.554 397.793 180.629C397.581 181.703 397.08 182.699 396.345 183.51C396.289 183.571 396.232 183.632 396.174 183.694C390.369 189.844 378.814 204.138 386.092 214.907C393.37 225.676 387.48 228.836 387.48 228.836L398.263 222.545L403.157 219.414L403.27 223.402L429.071 219.681C429.071 219.681 436.012 218.487 420.601 201.961C420.601 201.961 416.473 195.491 418.038 189.766C419.335 185.412 419.578 180.812 418.749 176.346C414.877 157.751 400.706 120.966 350.278 146.078Z" fill="black"/>
<path d="M369.934 551.974C424.462 551.974 468.666 549.434 468.666 546.301C468.666 543.169 424.462 540.629 369.934 540.629C315.405 540.629 271.201 543.169 271.201 546.301C271.201 549.434 315.405 551.974 369.934 551.974Z" fill="#4C98DD"/>
<path d="M0.600746 261.364C0.393465 261.419 0.216656 261.555 0.109108 261.741C0.00156076 261.927 -0.0279326 262.148 0.0271008 262.355L22.1125 345.357C22.168 345.564 22.3034 345.741 22.4891 345.849C22.6747 345.957 22.8955 345.986 23.1029 345.931L85.663 329.241C85.8703 329.185 86.0471 329.05 86.1547 328.864C86.2622 328.678 86.2917 328.457 86.2367 328.249L64.1513 245.248C64.0958 245.04 63.9604 244.863 63.7747 244.756C63.589 244.648 63.3683 244.619 63.1609 244.674L0.600746 261.364Z" fill="#F2F2F2"/>
<path d="M15.9737 275.071C15.1111 275.301 14.6681 276.46 14.9855 277.653C15.303 278.846 16.2628 279.63 17.1254 279.4L57.7895 268.551C58.6521 268.321 59.0951 267.163 58.7776 265.97C58.4602 264.777 57.5003 263.993 56.6378 264.223L15.9737 275.071Z" fill="white"/>
<path d="M18.4737 284.468C17.6111 284.698 17.1681 285.856 17.4855 287.049C17.803 288.242 18.7628 289.026 19.6254 288.796L60.2895 277.948C61.1521 277.717 61.5951 276.559 61.2776 275.366C60.9602 274.173 60.0003 273.389 59.1378 273.619L18.4737 284.468Z" fill="white"/>
<path d="M20.9737 293.864C20.1111 294.094 19.6681 295.253 19.9855 296.446C20.303 297.639 21.2628 298.423 22.1254 298.193L62.7895 287.344C63.6521 287.114 64.0951 285.956 63.7776 284.763C63.4602 283.57 62.5003 282.786 61.6378 283.016L20.9737 293.864Z" fill="white"/>
<path d="M23.4747 303.26C22.6121 303.49 22.1691 304.648 22.4865 305.841C22.804 307.034 23.7638 307.818 24.6264 307.588L65.2905 296.74C66.153 296.509 66.5961 295.351 66.2786 294.158C65.9611 292.965 65.0013 292.181 64.1387 292.411L23.4747 303.26Z" fill="white"/>
<path d="M25.9746 312.657C25.1121 312.887 24.6691 314.046 24.9865 315.239C25.304 316.432 26.2638 317.216 27.1264 316.986L67.7905 306.137C68.6531 305.907 69.0961 304.749 68.7786 303.556C68.4611 302.363 67.5013 301.579 66.6387 301.809L25.9746 312.657Z" fill="white"/>
<path d="M28.4746 322.054C27.6121 322.284 27.1691 323.442 27.4865 324.635C27.804 325.828 28.7638 326.612 29.6264 326.382L70.2905 315.534C71.1531 315.303 71.5961 314.145 71.2786 312.952C70.9611 311.759 70.0013 310.975 69.1388 311.205L28.4746 322.054Z" fill="white"/>
<path d="M160.478 553.812C160.478 553.916 160.84 554 161.287 554H247.071C247.517 554 247.88 553.916 247.88 553.812V538.791C247.88 538.688 247.517 538.604 247.071 538.604H161.287C160.84 538.604 160.478 538.688 160.478 538.791V553.812Z" fill="#F2F2F2"/>
<path d="M177.664 551.183C177.664 551.39 178.668 551.559 179.901 551.559C181.134 551.559 182.138 551.39 182.138 551.183V541.419C182.138 541.212 181.134 541.044 179.901 541.044C178.668 541.044 177.664 541.212 177.664 541.419V551.183Z" fill="white"/>
<path d="M187.375 551.183C187.375 551.39 188.379 551.559 189.612 551.559C190.845 551.559 191.849 551.39 191.849 551.183V541.419C191.849 541.212 190.845 541.044 189.612 541.044C188.379 541.044 187.375 541.212 187.375 541.419V551.183Z" fill="white"/>
<path d="M197.087 551.183C197.087 551.39 198.091 551.559 199.324 551.559C200.557 551.559 201.56 551.39 201.56 551.183V541.419C201.56 541.212 200.557 541.044 199.324 541.044C198.091 541.044 197.087 541.212 197.087 541.419V551.183Z" fill="white"/>
<path d="M206.798 551.183C206.798 551.39 207.802 551.559 209.035 551.559C210.268 551.559 211.271 551.39 211.271 551.183V541.419C211.271 541.212 210.268 541.044 209.035 541.044C207.802 541.044 206.798 541.212 206.798 541.419V551.183Z" fill="white"/>
<path d="M216.51 551.183C216.51 551.39 217.513 551.559 218.747 551.559C219.98 551.559 220.983 551.39 220.983 551.183V541.419C220.983 541.212 219.98 541.044 218.747 541.044C217.513 541.044 216.51 541.212 216.51 541.419V551.183Z" fill="white"/>
<path d="M226.221 551.183C226.221 551.39 227.224 551.559 228.457 551.559C229.691 551.559 230.694 551.39 230.694 551.183V541.419C230.694 541.212 229.691 541.044 228.457 541.044C227.224 541.044 226.221 541.212 226.221 541.419V551.183Z" fill="white"/>
<path d="M2.89562 201.466C2.70644 201.568 2.56515 201.74 2.50277 201.946C2.44038 202.151 2.462 202.373 2.56287 202.563L42.965 278.336C43.0663 278.526 43.2384 278.667 43.4437 278.73C43.649 278.792 43.8707 278.771 44.0601 278.67L101.172 248.137C101.362 248.036 101.503 247.864 101.565 247.658C101.628 247.452 101.606 247.23 101.505 247.041L61.1031 171.267C61.0018 171.078 60.8297 170.936 60.6244 170.874C60.4191 170.811 60.1974 170.833 60.008 170.934L2.89562 201.466Z" fill="#4C98DD"/>
<path d="M8.20482 203.681L45.1769 273.02L95.8641 245.923L58.8921 176.583L8.20482 203.681ZM4.99298 205.397L5.00009 205.394L4.99219 205.398L4.99298 205.397Z" fill="white"/>
<path d="M20.9849 211.304C20.1975 211.725 20.0298 212.954 20.6105 214.043C21.1913 215.132 22.3044 215.676 23.0918 215.255L60.2149 195.409C61.0023 194.988 61.17 193.759 60.5892 192.67C60.0085 191.581 58.8954 191.037 58.108 191.458L20.9849 211.304Z" fill="#368BD9"/>
<path d="M25.5581 219.882C24.7707 220.303 24.603 221.532 25.1838 222.621C25.7645 223.71 26.8776 224.254 27.665 223.833L64.7881 203.987C65.5755 203.566 65.7432 202.338 65.1624 201.248C64.5817 200.159 63.4686 199.615 62.6812 200.036L25.5581 219.882Z" fill="#368BD9"/>
<path d="M30.1324 228.46C29.3449 228.881 29.1773 230.11 29.758 231.199C30.3387 232.288 31.4518 232.833 32.2393 232.412L69.3624 212.566C70.1498 212.145 70.3175 210.916 69.7367 209.827C69.156 208.737 68.0429 208.193 67.2554 208.614L30.1324 228.46Z" fill="#368BD9"/>
<path d="M34.7066 237.038C33.9192 237.459 33.7515 238.688 34.3322 239.777C34.913 240.866 36.0261 241.411 36.8135 240.99L73.9365 221.144C74.724 220.723 74.8916 219.494 74.3109 218.405C73.7302 217.315 72.6171 216.771 71.8296 217.192L34.7066 237.038Z" fill="#368BD9"/>
<path d="M39.2798 245.616C38.4924 246.037 38.3247 247.266 38.9055 248.355C39.4862 249.445 40.5993 249.989 41.3867 249.568L78.5098 229.722C79.2972 229.301 79.4649 228.072 78.8841 226.983C78.3034 225.894 77.1903 225.349 76.4029 225.77L39.2798 245.616Z" fill="#368BD9"/>
<path d="M43.854 254.194C43.0666 254.615 42.8989 255.844 43.4797 256.934C44.0604 258.023 45.1735 258.567 45.961 258.146L83.084 238.3C83.8715 237.879 84.0391 236.65 83.4584 235.561C82.8776 234.472 81.7645 233.927 80.9771 234.348L43.854 254.194Z" fill="#368BD9"/>
<path d="M557.864 395.106C557.679 394.996 557.459 394.965 557.251 395.019C557.043 395.072 556.865 395.206 556.756 395.391L513.113 469.341C513.004 469.526 512.973 469.747 513.026 469.955C513.08 470.163 513.214 470.341 513.398 470.451L569.136 503.432C569.321 503.541 569.541 503.572 569.749 503.519C569.957 503.465 570.135 503.331 570.244 503.146L613.887 429.197C613.996 429.012 614.027 428.791 613.974 428.583C613.92 428.375 613.787 428.196 613.602 428.087L557.864 395.106Z" fill="#4C98DD"/>
<path d="M558.735 400.798L518.799 468.469L568.265 497.74L608.203 430.068L558.735 400.798ZM555.601 398.943L555.608 398.947L555.6 398.942L555.601 398.943Z" fill="white"/>
<path d="M558.876 415.691C558.107 415.237 556.972 415.732 556.344 416.795C555.717 417.858 555.831 419.093 556.6 419.548L592.829 440.986C593.598 441.44 594.733 440.945 595.361 439.882C595.988 438.819 595.874 437.584 595.105 437.129L558.876 415.691Z" fill="#368BD9"/>
<path d="M553.934 424.063C553.166 423.609 552.03 424.104 551.403 425.167C550.776 426.23 550.89 427.465 551.658 427.92L587.888 449.358C588.656 449.812 589.792 449.317 590.419 448.254C591.047 447.191 590.932 445.956 590.164 445.501L553.934 424.063Z" fill="#368BD9"/>
<path d="M548.994 432.435C548.225 431.981 547.09 432.476 546.462 433.539C545.835 434.602 545.949 435.837 546.718 436.292L582.948 457.73C583.716 458.184 584.852 457.689 585.479 456.626C586.106 455.563 585.992 454.328 585.224 453.873L548.994 432.435Z" fill="#368BD9"/>
<path d="M544.054 440.807C543.285 440.352 542.149 440.847 541.522 441.91C540.895 442.973 541.009 444.208 541.778 444.663L578.007 466.101C578.776 466.555 579.911 466.06 580.538 464.997C581.166 463.934 581.052 462.699 580.283 462.244L544.054 440.807Z" fill="#368BD9"/>
<path d="M539.113 449.179C538.345 448.724 537.209 449.219 536.582 450.282C535.954 451.345 536.069 452.58 536.837 453.035L573.067 474.473C573.835 474.928 574.971 474.432 575.598 473.369C576.225 472.306 576.111 471.071 575.343 470.616L539.113 449.179Z" fill="#368BD9"/>
<path d="M534.173 457.551C533.404 457.096 532.269 457.591 531.641 458.654C531.014 459.717 531.128 460.952 531.897 461.407L568.126 482.845C568.895 483.3 570.03 482.804 570.658 481.741C571.285 480.678 571.171 479.443 570.402 478.988L534.173 457.551Z" fill="#368BD9"/>
</g>
<defs>
<clipPath id="clip0">
<rect width="614" height="554" fill="white"/>
</clipPath>
</defs>
</svg>
