<svg width="423" height="410" viewBox="0 0 423 410" fill="none" xmlns="http://www.w3.org/2000/svg">
<g opacity="0.5">
<path opacity="0.5" d="M258.778 0.00536558L35.9072 101.519L176.373 409.008L399.244 307.494L258.778 0.00536558Z" fill="url(#paint0_linear)"/>
</g>
<path d="M256.975 3.56236L39.7744 102.493L177.136 403.187L394.336 304.256L256.975 3.56236Z" fill="white"/>
<path d="M198.909 20.414L91.1592 69.4922L103.065 95.5545L210.815 46.4763L198.909 20.414Z" fill="url(#paint1_linear)"/>
<path d="M133.396 19.4822C125.079 23.2717 121.485 33.237 125.371 41.742C129.257 50.2469 139.151 54.0698 147.467 50.2803C155.784 46.4908 159.378 36.5254 155.492 28.0205C151.606 19.5156 141.713 15.6927 133.396 19.4822ZM144.49 43.7656C142.74 44.6133 140.776 44.921 138.85 44.6494C136.924 44.3777 135.123 43.539 133.677 42.2404C132.231 40.9418 131.205 39.2422 130.73 37.3587C130.256 35.4751 130.355 33.4931 131.014 31.6658C131.672 29.8385 132.862 28.2487 134.43 27.0996C135.998 25.9505 137.873 25.2941 139.817 25.2143C141.76 25.1345 143.683 25.6349 145.341 26.6516C146.998 27.6683 148.314 29.1552 149.121 30.9223C149.662 32.0696 149.971 33.312 150.031 34.5786C150.091 35.8452 149.9 37.1111 149.47 38.3042C149.04 39.4973 148.379 40.5941 147.524 41.532C146.67 42.4698 145.638 43.2305 144.49 43.7704V43.7656Z" fill="url(#paint2_linear)"/>
<path d="M197.779 20.9504L92.2988 68.9946L103.681 93.9106L209.161 45.8663L197.779 20.9504Z" fill="#368BD9"/>
<path d="M133.911 20.6178C130.994 21.9458 128.538 24.1077 126.851 26.8301C125.165 29.5525 124.325 32.7131 124.438 35.9122C124.55 39.1112 125.611 42.2051 127.484 44.8025C129.358 47.3999 131.961 49.3841 134.964 50.5043C137.967 51.6244 141.235 51.8302 144.355 51.0955C147.476 50.3609 150.307 48.7188 152.493 46.377C154.678 44.0351 156.119 41.0988 156.634 37.9391C157.148 34.7795 156.712 31.5386 155.382 28.6263C153.598 24.7216 150.334 21.6843 146.307 20.1824C142.281 18.6806 137.822 18.8372 133.911 20.6178ZM144.517 43.8369C142.835 44.6027 140.963 44.8532 139.138 44.5569C137.313 44.2605 135.617 43.4304 134.265 42.1717C132.912 40.9129 131.964 39.282 131.54 37.4851C131.115 35.6882 131.234 33.806 131.881 32.0765C132.528 30.347 133.674 28.8479 135.174 27.7686C136.674 26.6893 138.461 26.0784 140.308 26.0131C142.156 25.9477 143.982 26.4309 145.554 27.4015C147.127 28.3721 148.376 29.7866 149.144 31.4661C150.172 33.7186 150.263 36.2868 149.395 38.6058C148.528 40.9248 146.773 42.8047 144.517 43.8321V43.8369Z" fill="#368BD9"/>
<path d="M118.736 125.362L72.2314 146.544L93.4442 192.98L139.948 171.798L118.736 125.362Z" fill="url(#paint3_linear)"/>
<path d="M160.931 217.312L114.427 238.494L135.639 284.93L182.144 263.748L160.931 217.312Z" fill="url(#paint4_linear)"/>
<path d="M117.806 127.836L74.707 147.467L94.3666 190.503L137.466 170.873L117.806 127.836Z" fill="#223D2F"/>
<path d="M159.455 219.004L116.355 238.635L136.015 281.671L179.114 262.04L159.455 219.004Z" fill="#368BD9"/>
<path d="M211.306 101.3L152.23 128.208L154.111 132.324L213.187 105.416L211.306 101.3Z" fill="#F2F2F2"/>
<path d="M252.598 89.9519L155.055 134.381L156.935 138.498L254.479 94.0684L252.598 89.9519Z" fill="#F2F2F2"/>
<path d="M248.543 99.2553L157.87 140.555L159.751 144.672L250.424 103.372L248.543 99.2553Z" fill="#F2F2F2"/>
<path d="M252.957 192.471L193.881 219.379L195.761 223.496L254.837 196.588L252.957 192.471Z" fill="#F2F2F2"/>
<path d="M294.247 181.119L196.703 225.549L198.584 229.665L296.127 185.236L294.247 181.119Z" fill="#F2F2F2"/>
<path d="M290.193 190.427L199.521 231.727L201.401 235.843L292.074 194.543L290.193 190.427Z" fill="#F2F2F2"/>
<path d="M95.1339 161.059L106.232 164.658L109.884 143.329L115.285 144.803L109.21 171.172L92.4717 163.846L95.1339 161.059Z" fill="url(#paint5_linear)"/>
<path d="M96.5496 160.777L106.2 163.904L109.373 145.357L114.067 146.641L108.786 169.569L94.2314 163.202L96.5496 160.777Z" fill="white"/>
<path d="M138.457 252.513L148.107 255.639L151.281 237.092L155.974 238.376L150.693 261.304L136.139 254.937L138.457 252.513Z" fill="white"/>
<path d="M323.73 254.665L185.923 317.434L206.876 363.301L344.683 300.532L323.73 254.665Z" fill="#F2F2F2"/>
<path d="M303.753 291.22C298.457 289.712 293.037 289.998 291.349 296.045C290.781 298.083 290.714 301.247 288.525 302.297C285.303 303.844 281.417 300.751 278.621 299.491C273.411 297.143 268.063 298.742 265.047 303.676C263.517 306.177 262.863 309.055 262.342 311.905C262.117 313.141 262.088 314.668 261.567 315.832C260.568 318.061 257.442 317.861 255.392 317.775C254.943 317.775 254.484 317.722 254.025 317.675C255.646 315.445 256.455 312.729 256.319 309.976C256.185 305.457 253.246 300.512 248.108 301.066C243.505 301.543 240.264 305.982 240.781 310.473C241.22 314.291 243.71 317.25 246.903 319.064C245.336 319.756 243.663 320.295 242.181 321.011C241.489 321.345 240.817 321.72 240.169 322.132C235.69 319.975 229.806 319.569 225.777 321.77C223.827 322.834 225.251 325.998 227.211 324.924C230.28 323.249 233.664 323.669 236.871 324.734L237.138 324.829C236.822 325.234 236.542 325.667 236.302 326.122C234.491 329.635 236.302 335.19 240.709 335.572C246.922 336.102 247.214 327.903 243.84 324.638C243.696 324.5 243.553 324.366 243.4 324.237C244.795 323.564 246.306 323.058 247.639 322.49C248.801 321.999 249.907 321.385 250.937 320.658L251.176 320.72C255.923 321.794 263.331 322.128 265.037 316.386C266.5 311.403 266.639 300.822 274.525 301.801C277.742 302.197 280.38 304.664 283.439 305.557C286.178 306.373 289.347 306.406 291.593 304.392C293.448 302.731 293.863 300.278 294.432 297.987C294.724 296.804 295.011 295.391 295.976 294.546C297.721 293.024 300.603 293.921 302.548 294.475C304.675 295.076 305.908 291.831 303.753 291.22ZM242.095 331.592C241.048 332.628 239.939 331.807 239.38 330.723C238.701 329.406 238.993 328.108 239.858 326.948C240 326.759 240.151 326.577 240.312 326.404C242.382 327.74 244.074 329.654 242.114 331.592H242.095ZM245.766 305.819C247.917 303.824 250.913 304.263 252.194 307.003C253.475 309.743 252.911 313.608 251.114 316.023C250.876 316.34 250.612 316.637 250.326 316.911C249.073 316.493 247.915 315.833 246.918 314.969C244.375 312.678 242.936 308.444 245.785 305.805L245.766 305.819Z" fill="#368BD9"/>
<path d="M332.416 105.815L293.834 120.834C286.579 120.295 271.313 118.329 256.161 111.194C239.294 103.252 219.97 103.271 203.585 111.59C165.826 112.492 145.044 107.662 133.955 103.09L136.88 97.0951L97.7727 81.8702L0 38.1143V217.453L34.2176 232.678L52.5715 188.712L92.8784 207.325L100.617 187.69L127.082 207.301L128.884 208.814L126.403 211.387C124.128 213.785 122.861 216.963 122.861 220.266C122.861 223.569 124.128 226.747 126.403 229.146C127.504 230.308 128.83 231.233 130.301 231.865C131.772 232.498 133.357 232.824 134.959 232.824C136.56 232.824 138.145 232.498 139.616 231.865C141.087 231.233 142.413 230.308 143.514 229.146L142.157 230.578C139.882 232.976 138.615 236.154 138.615 239.457C138.615 242.76 139.882 245.938 142.157 248.337C143.257 249.499 144.584 250.424 146.055 251.056C147.526 251.689 149.111 252.015 150.712 252.015C152.314 252.015 153.899 251.689 155.37 251.056C156.841 250.424 158.167 249.499 159.268 248.337L167.107 240.199L161.725 245.783C159.45 248.182 158.183 251.36 158.183 254.663C158.183 257.966 159.45 261.144 161.725 263.542C162.825 264.704 164.152 265.63 165.623 266.262C167.094 266.895 168.679 267.221 170.28 267.221C171.882 267.221 173.467 266.895 174.938 266.262C176.409 265.63 177.735 264.704 178.836 263.542L186.574 255.51L183.319 258.889C181.729 260.565 180.843 262.785 180.843 265.094C180.843 267.402 181.729 269.623 183.319 271.298C184.088 272.109 185.014 272.755 186.041 273.197C187.069 273.638 188.175 273.866 189.294 273.866C190.412 273.866 191.519 273.638 192.546 273.197C193.573 272.755 194.5 272.109 195.268 271.298L200.43 265.943C209.297 272.41 216.471 277.13 219.984 278.352C234.624 283.421 234.624 273.269 234.624 273.269C254.178 283.416 263.957 263.122 263.957 263.122C288.4 273.269 288.4 247.898 288.4 247.898C294.508 252.126 298.915 250.189 301.993 246.466C306.185 241.416 306.697 234.291 303.819 228.573L327.182 207.015L337.286 227.642L377.593 209.029L395.947 249.659L422.976 237.608V60.145L332.416 105.815Z" fill="url(#paint6_linear)"/>
<path d="M325.925 199.727L283.377 237.489L250.287 176.121L325.925 157.241V199.727Z" fill="#FFC4A9"/>
<path d="M122.646 100.594C122.646 100.594 136.301 119.474 217.192 114.754L264.468 185.562L296.147 221.152C301.123 226.745 301.405 235.226 296.52 240.896C293.552 244.337 289.284 246.146 283.376 242.209C283.376 242.209 283.376 265.81 259.741 256.369C259.741 256.369 250.287 275.25 231.378 265.81C231.378 265.81 231.378 275.25 217.197 270.53C203.016 265.81 127.373 204.447 127.373 204.447L94.2832 180.846L122.646 100.594Z" fill="#F9B17D"/>
<path d="M292.83 124.199C292.83 124.199 272.402 124.199 252.203 115.04C233.835 106.721 212.446 107.781 195.497 118.701C181.684 127.602 169.716 142.34 169.941 166.681C169.941 166.681 188.323 185.561 207.757 147.8H221.939C221.939 147.8 235.594 195.007 273.941 190.277C312.288 185.547 321.217 180.836 321.217 180.836L292.83 124.199Z" fill="#FFC4A9"/>
<path d="M168.721 217.408L167.187 215.876C163.041 211.736 156.32 211.736 152.174 215.876L141.187 226.847C137.041 230.987 137.041 237.699 141.187 241.838L142.721 243.37C146.867 247.51 153.588 247.51 157.734 243.37L168.721 232.399C172.867 228.259 172.867 221.548 168.721 217.408Z" fill="#FFC4A9"/>
<path d="M153.485 199.576L151.951 198.044C147.805 193.904 141.084 193.904 136.938 198.044L125.95 209.015C121.805 213.155 121.805 219.866 125.95 224.006L127.485 225.538C131.631 229.678 138.352 229.678 142.498 225.538L153.485 214.567C157.631 210.427 157.631 203.716 153.485 199.576Z" fill="#FFC4A9"/>
<path d="M189.992 229.205L188.458 227.673C184.312 223.534 177.59 223.534 173.445 227.673L160.095 241.004C155.949 245.143 155.949 251.855 160.095 255.994L161.629 257.527C165.775 261.666 172.496 261.666 176.642 257.527L189.992 244.196C194.138 240.057 194.138 233.345 189.992 229.205Z" fill="#FFC4A9"/>
<path d="M201.186 245.629L200.115 244.56C197.22 241.669 192.526 241.669 189.631 244.56L181.205 252.973C178.31 255.864 178.31 260.551 181.205 263.442L182.277 264.511C185.172 267.402 189.866 267.402 192.761 264.511L201.186 256.098C204.081 253.207 204.081 248.52 201.186 245.629Z" fill="#FFC4A9"/>
<path d="M373.196 209.168L330.652 228.048L288.104 124.2L325.925 110.039L373.196 209.168Z" fill="white"/>
<path d="M51.7402 185.567L94.284 204.447L136.833 100.598L99.0111 86.4331L51.7402 185.567Z" fill="white"/>
<path d="M4.46387 43.9517L99.0103 86.4333L37.5582 228.048L4.46387 213.888V43.9517Z" fill="#E3EFFA"/>
<path d="M420.471 67.5522L325.925 110.039L387.382 251.649L420.471 237.488V67.5522Z" fill="black"/>
<defs>
<linearGradient id="paint0_linear" x1="287.81" y1="358.25" x2="147.684" y2="50.6067" gradientUnits="userSpaceOnUse">
<stop stop-color="#808080" stop-opacity="0.25"/>
<stop offset="0.54" stop-color="#808080" stop-opacity="0.12"/>
<stop offset="1" stop-color="#808080" stop-opacity="0.1"/>
</linearGradient>
<linearGradient id="paint1_linear" x1="67991" y1="-26045.1" x2="67278.1" y2="-27610.1" gradientUnits="userSpaceOnUse">
<stop stop-color="#808080" stop-opacity="0.25"/>
<stop offset="0.54" stop-color="#808080" stop-opacity="0.12"/>
<stop offset="1" stop-color="#808080" stop-opacity="0.1"/>
</linearGradient>
<linearGradient id="paint2_linear" x1="20092.6" y1="-5174.56" x2="19100.7" y2="-7352.36" gradientUnits="userSpaceOnUse">
<stop stop-color="#808080" stop-opacity="0.25"/>
<stop offset="0.54" stop-color="#808080" stop-opacity="0.12"/>
<stop offset="1" stop-color="#808080" stop-opacity="0.1"/>
</linearGradient>
<linearGradient id="paint3_linear" x1="27538.9" y1="6182.02" x2="25276.1" y2="1214.1" gradientUnits="userSpaceOnUse">
<stop stop-color="#808080" stop-opacity="0.25"/>
<stop offset="0.54" stop-color="#808080" stop-opacity="0.12"/>
<stop offset="1" stop-color="#808080" stop-opacity="0.1"/>
</linearGradient>
<linearGradient id="paint4_linear" x1="32127.6" y1="16081.3" x2="29864.6" y2="11112.9" gradientUnits="userSpaceOnUse">
<stop stop-color="#808080" stop-opacity="0.25"/>
<stop offset="0.54" stop-color="#808080" stop-opacity="0.12"/>
<stop offset="1" stop-color="#808080" stop-opacity="0.1"/>
</linearGradient>
<linearGradient id="paint5_linear" x1="12639.2" y1="3705.44" x2="12033.3" y2="2375.05" gradientUnits="userSpaceOnUse">
<stop stop-color="#808080" stop-opacity="0.25"/>
<stop offset="0.54" stop-color="#808080" stop-opacity="0.12"/>
<stop offset="1" stop-color="#808080" stop-opacity="0.1"/>
</linearGradient>
<linearGradient id="paint6_linear" x1="253625" y1="146747" x2="253625" y2="24392.2" gradientUnits="userSpaceOnUse">
<stop stop-color="#808080" stop-opacity="0.25"/>
<stop offset="0.54" stop-color="#808080" stop-opacity="0.12"/>
<stop offset="1" stop-color="#808080" stop-opacity="0.1"/>
</linearGradient>
</defs>
</svg>
